<?xml version="1.0" encoding="utf-8" standalone="no"?>
<!DOCTYPE svg PUBLIC "-//W3C//DTD SVG 1.1//EN"
  "http://www.w3.org/Graphics/SVG/1.1/DTD/svg11.dtd">
<svg xmlns:xlink="http://www.w3.org/1999/xlink" width="748.8pt" height="532.8pt" viewBox="0 0 748.8 532.8" xmlns="http://www.w3.org/2000/svg" version="1.1">
 <metadata>
  <rdf:RDF xmlns:dc="http://purl.org/dc/elements/1.1/" xmlns:cc="http://creativecommons.org/ns#" xmlns:rdf="http://www.w3.org/1999/02/22-rdf-syntax-ns#">
   <cc:Work>
    <dc:type rdf:resource="http://purl.org/dc/dcmitype/StillImage"/>
    <dc:format>image/svg+xml</dc:format>
    <dc:creator>
     <cc:Agent>
      <dc:title>Matplotlib v3.11.2, https://matplotlib.org/</dc:title>
     </cc:Agent>
    </dc:creator>
   </cc:Work>
  </rdf:RDF>
 </metadata>
 <defs>
  <style type="text/css">*{stroke-linejoin: round; stroke-linecap: butt}</style>
 </defs>
 <g id="figure_1">
  <g id="patch_1">
   <path d="M 0 532.8 
L 748.8 532.8 
L 748.8 0 
L 0 0 
z
" style="fill: #ffffff"/>
  </g>
  <g id="axes_1">
   <g id="patch_2">
    <path d="M 69.88 233.057891 
L 724.8 233.057891 
L 724.8 46.940625 
L 69.88 46.940625 
z
" style="fill: #ffffff"/>
   </g>
   <g id="matplotlib.axis_1">
    <g id="xtick_1">
     <g id="line2d_1">
      <defs>
       <path id="mb1e6ee2a8e" d="M 0 0 
L 0 3.5 
" style="stroke: #000000; stroke-width: 0.8"/>
      </defs>
      <g>
       <use xlink:href="#mb1e6ee2a8e" x="99.649091" y="233.057891" style="stroke: #000000; stroke-width: 0.8"/>
      </g>
     </g>
    </g>
    <g id="xtick_2">
     <g id="line2d_2">
      <g>
       <use xlink:href="#mb1e6ee2a8e" x="218.725455" y="233.057891" style="stroke: #000000; stroke-width: 0.8"/>
      </g>
     </g>
    </g>
    <g id="xtick_3">
     <g id="line2d_3">
      <g>
       <use xlink:href="#mb1e6ee2a8e" x="337.801818" y="233.057891" style="stroke: #000000; stroke-width: 0.8"/>
      </g>
     </g>
    </g>
    <g id="xtick_4">
     <g id="line2d_4">
      <g>
       <use xlink:href="#mb1e6ee2a8e" x="456.878182" y="233.057891" style="stroke: #000000; stroke-width: 0.8"/>
      </g>
     </g>
    </g>
    <g id="xtick_5">
     <g id="line2d_5">
      <g>
       <use xlink:href="#mb1e6ee2a8e" x="575.954545" y="233.057891" style="stroke: #000000; stroke-width: 0.8"/>
      </g>
     </g>
    </g>
    <g id="xtick_6">
     <g id="line2d_6">
      <g>
       <use xlink:href="#mb1e6ee2a8e" x="695.030909" y="233.057891" style="stroke: #000000; stroke-width: 0.8"/>
      </g>
     </g>
    </g>
   </g>
   <g id="matplotlib.axis_2">
    <g id="ytick_1">
     <g id="line2d_7">
      <path d="M 69.88 233.057891 
L 724.8 233.057891 
" clip-path="url(#p97c25f1afb)" style="fill: none; stroke: #dddddd; stroke-width: 0.6; stroke-linecap: square"/>
     </g>
     <g id="line2d_8">
      <defs>
       <path id="mfe89cfdd08" d="M 0 0 
L -3.5 0 
" style="stroke: #000000; stroke-width: 0.8"/>
      </defs>
      <g>
       <use xlink:href="#mfe89cfdd08" x="69.88" y="233.057891" style="stroke: #000000; stroke-width: 0.8"/>
      </g>
     </g>
     <g id="text_1">
      <text style="font-size: 12px; font-family: 'DejaVu Sans'; text-anchor: end" x="62.88" y="237.616484" transform="rotate(-0 62.88 237.616484)">0.0%</text>
     </g>
    </g>
    <g id="ytick_2">
     <g id="line2d_9">
      <path d="M 69.88 204.858305 
L 724.8 204.858305 
" clip-path="url(#p97c25f1afb)" style="fill: none; stroke: #dddddd; stroke-width: 0.6; stroke-linecap: square"/>
     </g>
     <g id="line2d_10">
      <g>
       <use xlink:href="#mfe89cfdd08" x="69.88" y="204.858305" style="stroke: #000000; stroke-width: 0.8"/>
      </g>
     </g>
     <g id="text_2">
      <text style="font-size: 12px; font-family: 'DejaVu Sans'; text-anchor: end" x="62.88" y="209.416899" transform="rotate(-0 62.88 209.416899)">2.5%</text>
     </g>
    </g>
    <g id="ytick_3">
     <g id="line2d_11">
      <path d="M 69.88 176.658719 
L 724.8 176.658719 
" clip-path="url(#p97c25f1afb)" style="fill: none; stroke: #dddddd; stroke-width: 0.6; stroke-linecap: square"/>
     </g>
     <g id="line2d_12">
      <g>
       <use xlink:href="#mfe89cfdd08" x="69.88" y="176.658719" style="stroke: #000000; stroke-width: 0.8"/>
      </g>
     </g>
     <g id="text_3">
      <text style="font-size: 12px; font-family: 'DejaVu Sans'; text-anchor: end" x="62.88" y="181.217313" transform="rotate(-0 62.88 181.217313)">5.0%</text>
     </g>
    </g>
    <g id="ytick_4">
     <g id="line2d_13">
      <path d="M 69.88 148.459134 
L 724.8 148.459134 
" clip-path="url(#p97c25f1afb)" style="fill: none; stroke: #dddddd; stroke-width: 0.6; stroke-linecap: square"/>
     </g>
     <g id="line2d_14">
      <g>
       <use xlink:href="#mfe89cfdd08" x="69.88" y="148.459134" style="stroke: #000000; stroke-width: 0.8"/>
      </g>
     </g>
     <g id="text_4">
      <text style="font-size: 12px; font-family: 'DejaVu Sans'; text-anchor: end" x="62.88" y="153.017727" transform="rotate(-0 62.88 153.017727)">7.5%</text>
     </g>
    </g>
    <g id="ytick_5">
     <g id="line2d_15">
      <path d="M 69.88 120.259548 
L 724.8 120.259548 
" clip-path="url(#p97c25f1afb)" style="fill: none; stroke: #dddddd; stroke-width: 0.6; stroke-linecap: square"/>
     </g>
     <g id="line2d_16">
      <g>
       <use xlink:href="#mfe89cfdd08" x="69.88" y="120.259548" style="stroke: #000000; stroke-width: 0.8"/>
      </g>
     </g>
     <g id="text_5">
      <text style="font-size: 12px; font-family: 'DejaVu Sans'; text-anchor: end" x="62.88" y="124.818142" transform="rotate(-0 62.88 124.818142)">10.0%</text>
     </g>
    </g>
    <g id="ytick_6">
     <g id="line2d_17">
      <path d="M 69.88 92.059962 
L 724.8 92.059962 
" clip-path="url(#p97c25f1afb)" style="fill: none; stroke: #dddddd; stroke-width: 0.6; stroke-linecap: square"/>
     </g>
     <g id="line2d_18">
      <g>
       <use xlink:href="#mfe89cfdd08" x="69.88" y="92.059962" style="stroke: #000000; stroke-width: 0.8"/>
      </g>
     </g>
     <g id="text_6">
      <text style="font-size: 12px; font-family: 'DejaVu Sans'; text-anchor: end" x="62.88" y="96.618556" transform="rotate(-0 62.88 96.618556)">12.5%</text>
     </g>
    </g>
    <g id="ytick_7">
     <g id="line2d_19">
      <path d="M 69.88 63.860376 
L 724.8 63.860376 
" clip-path="url(#p97c25f1afb)" style="fill: none; stroke: #dddddd; stroke-width: 0.6; stroke-linecap: square"/>
     </g>
     <g id="line2d_20">
      <g>
       <use xlink:href="#mfe89cfdd08" x="69.88" y="63.860376" style="stroke: #000000; stroke-width: 0.8"/>
      </g>
     </g>
     <g id="text_7">
      <text style="font-size: 12px; font-family: 'DejaVu Sans'; text-anchor: end" x="62.88" y="68.41897" transform="rotate(-0 62.88 68.41897)">15.0%</text>
     </g>
    </g>
   </g>
   <g id="line2d_21">
    <path d="M 99.649091 80.548463 
L 218.725455 138.934983 
L 337.801818 141.508691 
L 456.878182 165.868723 
L 575.954545 136.11005 
" clip-path="url(#p97c25f1afb)" style="fill: none; stroke: #222222; stroke-width: 1.5; stroke-linecap: square"/>
    <defs>
     <path id="m7395429302" d="M 0 3 
C 0.795609 3 1.55874 2.683901 2.12132 2.12132 
C 2.683901 1.55874 3 0.795609 3 0 
C 3 -0.795609 2.683901 -1.55874 2.12132 -2.12132 
C 1.55874 -2.683901 0.795609 -3 0 -3 
C -0.795609 -3 -1.55874 -2.683901 -2.12132 -2.12132 
C -2.683901 -1.55874 -3 -0.795609 -3 0 
C -3 0.795609 -2.683901 1.55874 -2.12132 2.12132 
C -1.55874 2.683901 -0.795609 3 0 3 
z
" style="stroke: #222222"/>
    </defs>
    <g clip-path="url(#p97c25f1afb)">
     <use xlink:href="#m7395429302" x="99.649091" y="80.548463" style="fill: #222222; stroke: #222222"/>
     <use xlink:href="#m7395429302" x="218.725455" y="138.934983" style="fill: #222222; stroke: #222222"/>
     <use xlink:href="#m7395429302" x="337.801818" y="141.508691" style="fill: #222222; stroke: #222222"/>
     <use xlink:href="#m7395429302" x="456.878182" y="165.868723" style="fill: #222222; stroke: #222222"/>
     <use xlink:href="#m7395429302" x="575.954545" y="136.11005" style="fill: #222222; stroke: #222222"/>
    </g>
   </g>
   <g id="line2d_22">
    <path d="M 575.954545 136.11005 
L 695.030909 88.630825 
" clip-path="url(#p97c25f1afb)" style="fill: none; stroke-dasharray: 1.5,2.475; stroke-dashoffset: 0; stroke: #222222; stroke-width: 1.5"/>
   </g>
   <g id="line2d_23">
    <defs>
     <path id="m588b63dc47" d="M 0 3 
C 0.795609 3 1.55874 2.683901 2.12132 2.12132 
C 2.683901 1.55874 3 0.795609 3 0 
C 3 -0.795609 2.683901 -1.55874 2.12132 -2.12132 
C 1.55874 -2.683901 0.795609 -3 0 -3 
C -0.795609 -3 -1.55874 -2.683901 -2.12132 -2.12132 
C -2.683901 -1.55874 -3 -0.795609 -3 0 
C -3 0.795609 -2.683901 1.55874 -2.12132 2.12132 
C -1.55874 2.683901 -0.795609 3 0 3 
z
" style="stroke: #222222"/>
    </defs>
    <g clip-path="url(#p97c25f1afb)">
     <use xlink:href="#m588b63dc47" x="695.030909" y="88.630825" style="fill: #ffffff; stroke: #222222"/>
    </g>
   </g>
   <g id="line2d_24">
    <defs>
     <path id="mf5b4839966" d="M -3 3 
L 3 -3 
M -3 -3 
L 3 3 
" style="stroke: #222222"/>
    </defs>
    <g clip-path="url(#p97c25f1afb)">
     <use xlink:href="#mf5b4839966" x="695.030909" y="157.754405" style="fill: #222222; stroke: #222222"/>
    </g>
   </g>
   <g id="line2d_25">
    <path d="M 99.649091 182.522417 
L 218.725455 210.319707 
L 337.801818 209.872056 
L 456.878182 210.164914 
L 575.954545 209.400141 
" clip-path="url(#p97c25f1afb)" style="fill: none; stroke: #176c9c; stroke-width: 1.5; stroke-linecap: square"/>
    <defs>
     <path id="m7425bf506c" d="M 0 3 
C 0.795609 3 1.55874 2.683901 2.12132 2.12132 
C 2.683901 1.55874 3 0.795609 3 0 
C 3 -0.795609 2.683901 -1.55874 2.12132 -2.12132 
C 1.55874 -2.683901 0.795609 -3 0 -3 
C -0.795609 -3 -1.55874 -2.683901 -2.12132 -2.12132 
C -2.683901 -1.55874 -3 -0.795609 -3 0 
C -3 0.795609 -2.683901 1.55874 -2.12132 2.12132 
C -1.55874 2.683901 -0.795609 3 0 3 
z
" style="stroke: #176c9c"/>
    </defs>
    <g clip-path="url(#p97c25f1afb)">
     <use xlink:href="#m7425bf506c" x="99.649091" y="182.522417" style="fill: #176c9c; stroke: #176c9c"/>
     <use xlink:href="#m7425bf506c" x="218.725455" y="210.319707" style="fill: #176c9c; stroke: #176c9c"/>
     <use xlink:href="#m7425bf506c" x="337.801818" y="209.872056" style="fill: #176c9c; stroke: #176c9c"/>
     <use xlink:href="#m7425bf506c" x="456.878182" y="210.164914" style="fill: #176c9c; stroke: #176c9c"/>
     <use xlink:href="#m7425bf506c" x="575.954545" y="209.400141" style="fill: #176c9c; stroke: #176c9c"/>
    </g>
   </g>
   <g id="line2d_26">
    <path d="M 575.954545 209.400141 
L 695.030909 134.200915 
" clip-path="url(#p97c25f1afb)" style="fill: none; stroke-dasharray: 1.5,2.475; stroke-dashoffset: 0; stroke: #176c9c; stroke-width: 1.5"/>
   </g>
   <g id="line2d_27">
    <defs>
     <path id="m79323bfdd7" d="M 0 3 
C 0.795609 3 1.55874 2.683901 2.12132 2.12132 
C 2.683901 1.55874 3 0.795609 3 0 
C 3 -0.795609 2.683901 -1.55874 2.12132 -2.12132 
C 1.55874 -2.683901 0.795609 -3 0 -3 
C -0.795609 -3 -1.55874 -2.683901 -2.12132 -2.12132 
C -2.683901 -1.55874 -3 -0.795609 -3 0 
C -3 0.795609 -2.683901 1.55874 -2.12132 2.12132 
C -1.55874 2.683901 -0.795609 3 0 3 
z
" style="stroke: #176c9c"/>
    </defs>
    <g clip-path="url(#p97c25f1afb)">
     <use xlink:href="#m79323bfdd7" x="695.030909" y="134.200915" style="fill: #ffffff; stroke: #176c9c"/>
    </g>
   </g>
   <g id="line2d_28">
    <defs>
     <path id="mabb4e5b9ac" d="M -3 3 
L 3 -3 
M -3 -3 
L 3 3 
" style="stroke: #176c9c"/>
    </defs>
    <g clip-path="url(#p97c25f1afb)">
     <use xlink:href="#mabb4e5b9ac" x="695.030909" y="206.025396" style="fill: #176c9c; stroke: #176c9c"/>
    </g>
   </g>
   <g id="line2d_29">
    <path d="M 516.416364 233.057891 
L 516.416364 46.940625 
" clip-path="url(#p97c25f1afb)" style="fill: none; stroke-dasharray: 2.96,1.28; stroke-dashoffset: 0; stroke: #555555; stroke-width: 0.8"/>
   </g>
   <g id="patch_3">
    <path d="M 69.88 233.057891 
L 69.88 46.940625 
" style="fill: none; stroke: #000000; stroke-width: 0.8; stroke-linejoin: miter; stroke-linecap: square"/>
   </g>
   <g id="patch_4">
    <path d="M 69.88 233.057891 
L 724.8 233.057891 
" style="fill: none; stroke: #000000; stroke-width: 0.8; stroke-linejoin: miter; stroke-linecap: square"/>
   </g>
   <g id="patch_5">
    <path d="M 522.00824 68.36801 
Q 607.525571 78.383042 693.042901 88.398075 
" style="fill: none; stroke: #555555; stroke-width: 0.7; stroke-linecap: round"/>
   </g>
   <g id="text_8">
    <text style="font-size: 10px; font-family: 'DejaVu Sans'" transform="translate(266.356 50.729659)">Open circles: only Sep 19 before 10:00 UTC is mature</text>
    <text style="font-size: 10px; font-family: 'DejaVu Sans'" transform="translate(266.356 62.732393)">Crosses: all additions, incomplete follow-up</text>
   </g>
   <g id="text_9">
    <text style="font-size: 14.4px; font-family: 'DejaVu Sans'; text-anchor: start" x="69.88" y="34.940625" transform="rotate(-0 69.88 34.940625)">Seven-day deletion share of added lines</text>
   </g>
   <g id="legend_1">
    <g id="line2d_30">
     <path d="M 551.701875 62.65875 
L 563.701875 62.65875 
L 575.701875 62.65875 
" style="fill: none; stroke: #222222; stroke-width: 1.5; stroke-linecap: square"/>
     <g>
      <use xlink:href="#m7395429302" x="563.701875" y="62.65875" style="fill: #222222; stroke: #222222"/>
     </g>
    </g>
    <g id="text_10">
     <text style="font-size: 12px; font-family: 'DejaVu Sans'; text-anchor: start" x="585.301875" y="66.85875" transform="rotate(-0 585.301875 66.85875)">Source</text>
    </g>
    <g id="line2d_31">
     <path d="M 650.518125 62.65875 
L 662.518125 62.65875 
L 674.518125 62.65875 
" style="fill: none; stroke: #176c9c; stroke-width: 1.5; stroke-linecap: square"/>
     <g>
      <use xlink:href="#m7425bf506c" x="662.518125" y="62.65875" style="fill: #176c9c; stroke: #176c9c"/>
     </g>
    </g>
    <g id="text_11">
     <text style="font-size: 12px; font-family: 'DejaVu Sans'; text-anchor: start" x="684.118125" y="66.85875" transform="rotate(-0 684.118125 66.85875)">Tests</text>
    </g>
   </g>
  </g>
  <g id="axes_2">
   <g id="patch_6">
    <path d="M 69.88 473.557188 
L 724.8 473.557188 
L 724.8 287.439922 
L 69.88 287.439922 
z
" style="fill: #ffffff"/>
   </g>
   <g id="matplotlib.axis_3">
    <g id="xtick_7">
     <g id="line2d_32">
      <g>
       <use xlink:href="#mb1e6ee2a8e" x="99.649091" y="473.557188" style="stroke: #000000; stroke-width: 0.8"/>
      </g>
     </g>
     <g id="text_12">
      <text style="font-size: 12px; font-family: 'DejaVu Sans'; text-anchor: middle" x="99.649091" y="489.674375" transform="rotate(-0 99.649091 489.674375)">08-15</text>
     </g>
    </g>
    <g id="xtick_8">
     <g id="line2d_33">
      <g>
       <use xlink:href="#mb1e6ee2a8e" x="218.725455" y="473.557188" style="stroke: #000000; stroke-width: 0.8"/>
      </g>
     </g>
     <g id="text_13">
      <text style="font-size: 12px; font-family: 'DejaVu Sans'; text-anchor: middle" x="218.725455" y="489.674375" transform="rotate(-0 218.725455 489.674375)">08-22</text>
     </g>
    </g>
    <g id="xtick_9">
     <g id="line2d_34">
      <g>
       <use xlink:href="#mb1e6ee2a8e" x="337.801818" y="473.557188" style="stroke: #000000; stroke-width: 0.8"/>
      </g>
     </g>
     <g id="text_14">
      <text style="font-size: 12px; font-family: 'DejaVu Sans'; text-anchor: middle" x="337.801818" y="489.674375" transform="rotate(-0 337.801818 489.674375)">08-29</text>
     </g>
    </g>
    <g id="xtick_10">
     <g id="line2d_35">
      <g>
       <use xlink:href="#mb1e6ee2a8e" x="456.878182" y="473.557188" style="stroke: #000000; stroke-width: 0.8"/>
      </g>
     </g>
     <g id="text_15">
      <text style="font-size: 12px; font-family: 'DejaVu Sans'; text-anchor: middle" x="456.878182" y="489.674375" transform="rotate(-0 456.878182 489.674375)">09-05</text>
     </g>
    </g>
    <g id="xtick_11">
     <g id="line2d_36">
      <g>
       <use xlink:href="#mb1e6ee2a8e" x="575.954545" y="473.557188" style="stroke: #000000; stroke-width: 0.8"/>
      </g>
     </g>
     <g id="text_16">
      <text style="font-size: 12px; font-family: 'DejaVu Sans'; text-anchor: middle" x="575.954545" y="489.674375" transform="rotate(-0 575.954545 489.674375)">09-12</text>
     </g>
    </g>
    <g id="xtick_12">
     <g id="line2d_37">
      <g>
       <use xlink:href="#mb1e6ee2a8e" x="695.030909" y="473.557188" style="stroke: #000000; stroke-width: 0.8"/>
      </g>
     </g>
     <g id="text_17">
      <text style="font-size: 12px; font-family: 'DejaVu Sans'; text-anchor: middle" x="695.030909" y="489.674375" transform="rotate(-0 695.030909 489.674375)">09-19</text>
     </g>
    </g>
    <g id="text_18">
     <text style="font-size: 12px; font-family: 'DejaVu Sans'; text-anchor: middle" x="397.34" y="505.675313" transform="rotate(-0 397.34 505.675313)">Week beginning (UTC, 2026)</text>
    </g>
   </g>
   <g id="matplotlib.axis_4">
    <g id="ytick_8">
     <g id="line2d_38">
      <path d="M 69.88 468.05076 
L 724.8 468.05076 
" clip-path="url(#pe55b4bcf6a)" style="fill: none; stroke: #dddddd; stroke-width: 0.6; stroke-linecap: square"/>
     </g>
     <g id="line2d_39">
      <g>
       <use xlink:href="#mfe89cfdd08" x="69.88" y="468.05076" style="stroke: #000000; stroke-width: 0.8"/>
      </g>
     </g>
     <g id="text_19">
      <text style="font-size: 12px; font-family: 'DejaVu Sans'; text-anchor: end" x="62.88" y="472.609353" transform="rotate(-0 62.88 472.609353)">0%</text>
     </g>
    </g>
    <g id="ytick_9">
     <g id="line2d_40">
      <path d="M 69.88 423.999336 
L 724.8 423.999336 
" clip-path="url(#pe55b4bcf6a)" style="fill: none; stroke: #dddddd; stroke-width: 0.6; stroke-linecap: square"/>
     </g>
     <g id="line2d_41">
      <g>
       <use xlink:href="#mfe89cfdd08" x="69.88" y="423.999336" style="stroke: #000000; stroke-width: 0.8"/>
      </g>
     </g>
     <g id="text_20">
      <text style="font-size: 12px; font-family: 'DejaVu Sans'; text-anchor: end" x="62.88" y="428.557929" transform="rotate(-0 62.88 428.557929)">20%</text>
     </g>
    </g>
    <g id="ytick_10">
     <g id="line2d_42">
      <path d="M 69.88 379.947912 
L 724.8 379.947912 
" clip-path="url(#pe55b4bcf6a)" style="fill: none; stroke: #dddddd; stroke-width: 0.6; stroke-linecap: square"/>
     </g>
     <g id="line2d_43">
      <g>
       <use xlink:href="#mfe89cfdd08" x="69.88" y="379.947912" style="stroke: #000000; stroke-width: 0.8"/>
      </g>
     </g>
     <g id="text_21">
      <text style="font-size: 12px; font-family: 'DejaVu Sans'; text-anchor: end" x="62.88" y="384.506506" transform="rotate(-0 62.88 384.506506)">40%</text>
     </g>
    </g>
    <g id="ytick_11">
     <g id="line2d_44">
      <path d="M 69.88 335.896488 
L 724.8 335.896488 
" clip-path="url(#pe55b4bcf6a)" style="fill: none; stroke: #dddddd; stroke-width: 0.6; stroke-linecap: square"/>
     </g>
     <g id="line2d_45">
      <g>
       <use xlink:href="#mfe89cfdd08" x="69.88" y="335.896488" style="stroke: #000000; stroke-width: 0.8"/>
      </g>
     </g>
     <g id="text_22">
      <text style="font-size: 12px; font-family: 'DejaVu Sans'; text-anchor: end" x="62.88" y="340.455082" transform="rotate(-0 62.88 340.455082)">60%</text>
     </g>
    </g>
    <g id="ytick_12">
     <g id="line2d_46">
      <path d="M 69.88 291.845064 
L 724.8 291.845064 
" clip-path="url(#pe55b4bcf6a)" style="fill: none; stroke: #dddddd; stroke-width: 0.6; stroke-linecap: square"/>
     </g>
     <g id="line2d_47">
      <g>
       <use xlink:href="#mfe89cfdd08" x="69.88" y="291.845064" style="stroke: #000000; stroke-width: 0.8"/>
      </g>
     </g>
     <g id="text_23">
      <text style="font-size: 12px; font-family: 'DejaVu Sans'; text-anchor: end" x="62.88" y="296.403658" transform="rotate(-0 62.88 296.403658)">80%</text>
     </g>
    </g>
   </g>
   <g id="line2d_48">
    <path d="M 99.649091 468.05076 
L 218.725455 468.05076 
L 337.801818 468.05076 
L 456.878182 404.876237 
L 575.954545 336.66932 
L 695.030909 317.34852 
" clip-path="url(#pe55b4bcf6a)" style="fill: none; stroke: #176c9c; stroke-width: 1.5; stroke-linecap: square"/>
    <g clip-path="url(#pe55b4bcf6a)">
     <use xlink:href="#m7425bf506c" x="99.649091" y="468.05076" style="fill: #176c9c; stroke: #176c9c"/>
     <use xlink:href="#m7425bf506c" x="218.725455" y="468.05076" style="fill: #176c9c; stroke: #176c9c"/>
     <use xlink:href="#m7425bf506c" x="337.801818" y="468.05076" style="fill: #176c9c; stroke: #176c9c"/>
     <use xlink:href="#m7425bf506c" x="456.878182" y="404.876237" style="fill: #176c9c; stroke: #176c9c"/>
     <use xlink:href="#m7425bf506c" x="575.954545" y="336.66932" style="fill: #176c9c; stroke: #176c9c"/>
     <use xlink:href="#m7425bf506c" x="695.030909" y="317.34852" style="fill: #176c9c; stroke: #176c9c"/>
    </g>
   </g>
   <g id="line2d_49">
    <path d="M 516.416364 473.557188 
L 516.416364 287.439922 
" clip-path="url(#pe55b4bcf6a)" style="fill: none; stroke-dasharray: 2.96,1.28; stroke-dashoffset: 0; stroke: #555555; stroke-width: 0.8"/>
   </g>
   <g id="patch_7">
    <path d="M 69.88 473.557188 
L 69.88 287.439922 
" style="fill: none; stroke: #000000; stroke-width: 0.8; stroke-linejoin: miter; stroke-linecap: square"/>
   </g>
   <g id="patch_8">
    <path d="M 69.88 473.557188 
L 724.8 473.557188 
" style="fill: none; stroke: #000000; stroke-width: 0.8; stroke-linejoin: miter; stroke-linecap: square"/>
   </g>
   <g id="text_24">
    <text style="font-size: 11px; font-family: 'DejaVu Sans'; text-anchor: middle" x="99.649091" y="458.05076" transform="rotate(-0 99.649091 458.05076)">0/118</text>
   </g>
   <g id="text_25">
    <text style="font-size: 11px; font-family: 'DejaVu Sans'; text-anchor: middle" x="218.725455" y="458.05076" transform="rotate(-0 218.725455 458.05076)">0/174</text>
   </g>
   <g id="text_26">
    <text style="font-size: 11px; font-family: 'DejaVu Sans'; text-anchor: middle" x="337.801818" y="458.05076" transform="rotate(-0 337.801818 458.05076)">0/60</text>
   </g>
   <g id="text_27">
    <text style="font-size: 11px; font-family: 'DejaVu Sans'; text-anchor: middle" x="456.878182" y="394.876237" transform="rotate(-0 456.878182 394.876237)">37/129</text>
   </g>
   <g id="text_28">
    <text style="font-size: 11px; font-family: 'DejaVu Sans'; text-anchor: middle" x="575.954545" y="326.66932" transform="rotate(-0 575.954545 326.66932)">34/57</text>
   </g>
   <g id="text_29">
    <text style="font-size: 11px; font-family: 'DejaVu Sans'; text-anchor: middle" x="695.030909" y="307.34852" transform="rotate(-0 695.030909 307.34852)">65/95</text>
   </g>
   <g id="text_30">
    <text style="font-size: 10px; font-family: 'DejaVu Sans'; text-anchor: start" x="522.370182" y="457.037904" transform="rotate(-0 522.370182 457.037904)">Sep 12 study boundary</text>
   </g>
   <g id="text_31">
    <text style="font-size: 14.4px; font-family: 'DejaVu Sans'; text-anchor: start" x="69.88" y="275.439922" transform="rotate(-0 69.88 275.439922)">Local lane share of source/test-changing landings</text>
   </g>
  </g>
 </g>
 <defs>
  <clipPath id="p97c25f1afb">
   <rect x="69.88" y="46.940625" width="654.92" height="186.117266"/>
  </clipPath>
  <clipPath id="pe55b4bcf6a">
   <rect x="69.88" y="287.439922" width="654.92" height="186.117266"/>
  </clipPath>
 </defs>
</svg>
